<?xml version="1.0" encoding="UTF-8" standalone="no"?>
<!-- Created with Inkscape (http://www.inkscape.org/) -->

<svg
   xmlns:dc="http://purl.org/dc/elements/1.1/"
   xmlns:cc="http://creativecommons.org/ns#"
   xmlns:rdf="http://www.w3.org/1999/02/22-rdf-syntax-ns#"
   xmlns:svg="http://www.w3.org/2000/svg"
   xmlns="http://www.w3.org/2000/svg"
   xmlns:xlink="http://www.w3.org/1999/xlink"
   xmlns:sodipodi="http://sodipodi.sourceforge.net/DTD/sodipodi-0.dtd"
   xmlns:inkscape="http://www.inkscape.org/namespaces/inkscape"
   width="64px"
   height="64px"
   id="cpmlogo"
   version="1.1"
   inkscape:version="0.91 r13725"
   sodipodi:docname="logo.svg">
  <defs
     id="defs3064" />
  <sodipodi:namedview
     id="base"
     pagecolor="#ffffff"
     bordercolor="#666666"
     borderopacity="1.0"
     inkscape:pageopacity="0.0"
     inkscape:pageshadow="2"
     inkscape:zoom="5.5"
     inkscape:cx="32"
     inkscape:cy="32"
     inkscape:current-layer="layer1"
     showgrid="true"
     inkscape:document-units="px"
     inkscape:grid-bbox="true"
     inkscape:window-width="1280"
     inkscape:window-height="747"
     inkscape:window-x="0"
     inkscape:window-y="19"
     inkscape:window-maximized="0" />
  <metadata
     id="metadata3067">
    <rdf:RDF>
      <cc:Work
         rdf:about="">
        <dc:format>image/svg+xml</dc:format>
        <dc:type
           rdf:resource="http://purl.org/dc/dcmitype/StillImage" />
        <dc:title />
      </cc:Work>
    </rdf:RDF>
  </metadata>
  <g
     id="layer1"
     inkscape:label="Layer 1"
     inkscape:groupmode="layer">
    <path
       style="fill:#ca2627;fill-rule:evenodd;stroke:#ca2627;stroke-width:0.15387128;stroke-linejoin:bevel;stroke-miterlimit:10"
       inkscape:connector-curvature="0"
       clip-rule="evenodd"
       stroke-miterlimit="10"
       d="M 9.2451188,51.522853 C -1.5104867,38.898085 -0.00438868,19.913243 12.605919,9.147176 25.216533,-1.618891 44.181375,-0.110331 54.936981,12.514437 65.692277,25.139204 64.186179,44.124047 51.575565,54.890114 38.965259,65.656181 20.000417,64.147928 9.2451188,51.522853 l 0,0 z M 49.368877,52.307748 C 60.554004,42.76102 61.890263,25.925944 52.35246,14.730663 42.814964,3.535381 25.995889,2.197277 14.811684,11.74431 3.6268633,21.291038 2.2906043,38.126113 11.828408,49.321395 c 9.537804,11.195281 26.356571,12.533386 37.540469,2.986353 l 0,0 z"
       id="path7" />
    <circle
       style="fill:#ca2627"
       id="circle1"
       cx="19.494459"
       cy="39.778267"
       r="9.1000004" />
    <use
       x="0"
       y="0"
       xlink:href="#circle1"
       id="use1_1"
       transform="translate(25.3,-0.2)"
       width="100%"
       height="100%" />
    <use
       x="0"
       y="0"
       xlink:href="#circle1"
       id="use1_2"
       transform="translate(12.82,-22.5)"
       width="100%"
       height="100%" />
    <circle
       r="2.7"
       cy="32.025097"
       cx="32.029755"
       id="circle2"
       style="fill:#ca2627" />
  </g>
</svg>
